
        <svg xmlns="http://www.w3.org/2000/svg" xmlns:xlink="http://www.w3.org/1999/xlink" version="1.1" width="3156.9821790247" height="665.6044390647285" viewBox="0 0 3156.9821790247 665.6044390647285">
			
			<g transform="scale(7.849108951235005) translate(10, 10)">
				<defs id="SvgjsDefs3523"/><g id="SvgjsG3524" featureKey="nameLeftFeature-0" transform="matrix(2.6551425457000732,0,0,2.6551425457000732,-2.250648228176318,-2.1028522039758)" fill="#fff"><path d="M9.3388 6.441000000000001 c0.18661 0 0.33898 0.15254 0.33898 0.32203 l0 1.6949 c0 0.18644 -0.13559 0.32203 -0.33898 0.32203 l-6.0678 0 l0 3.4068 l3.2203 0 c0.18644 0 0.33898 0.15254 0.33898 0.33915 l0 1.6778 c0 0.20339 -0.13559 0.3222 -0.33898 0.3222 l-3.2203 0 l0 5.1356 c0 0.20339 -0.11864 0.33881 -0.30508 0.33881 l-1.2881 0 c-0.52542 0 -0.83051 -0.37288 -0.83051 -0.86441 l0 -12.373 c0 -0.16949 0.13559 -0.32203 0.32203 -0.32203 l8.1695 0 z M13.542240677966102 6.441000000000001 l-1.6778 0 c-0.18644 0 -0.32203 0.15254 -0.32203 0.32203 l0 12.898 c0 0.18644 0.15254 0.33881 0.33898 0.33881 l1.678 0 c0.16933 0 0.32186 -0.16933 0.32186 -0.33881 l0 -12.898 c0 -0.16949 -0.16949 -0.32203 -0.33898 -0.32203 z M27.94928813559322 6.441000000000001 c0.16949 0 0.33915 0.15254 0.33915 0.32203 l0 12.915 c0 0.16949 -0.13559 0.32186 -0.32203 0.32186 l-0.55932 0 c-0.45763 0 -0.94915 -0.32203 -1.5593 -1 l-6.9322 -7.7456 l0 8.4068 c0 0.16949 -0.15254 0.32203 -0.33915 0.32203 l-1.7288 0.016784 c-0.18644 0 -0.33898 -0.15238 -0.33898 -0.33881 l0 -12.898 c0 -0.16949 0.15254 -0.32203 0.32203 -0.32203 l1 0 c0.18644 0 0.30508 0.067797 0.45763 0.25424 l7.5763 8.678 l0 -8.6102 c0 -0.16949 0.13559 -0.32203 0.32203 -0.32203 l1.7627 0 z M39.4237220338983 8.78 l-6.1697 -0.00033103 l0 3.4068 l3.322 0 c0.18644 0 0.33898 0.15254 0.33898 0.33915 l0 1.6778 c0 0.20339 -0.13559 0.3222 -0.33898 0.3222 l-3.322 0 l0 3.1356 l6.1695 0 c0.18644 0 0.33881 0.15238 0.33881 0.33881 l0 1.6613 c0 0.18644 -0.15238 0.33881 -0.33881 0.33881 l-8.2542 0 c-0.18644 0 -0.33898 -0.15238 -0.33898 -0.33881 l0 -12.898 c0 -0.16949 0.13559 -0.32203 0.3222 -0.32203 l8.2712 0 c0.18644 0 0.33881 0.15254 0.33881 0.32203 l0 1.6949 c0 0.18644 -0.15238 0.32203 -0.33881 0.32203 z"/></g><g id="SvgjsG3525" featureKey="inlineSymbolFeature-0" transform="matrix(0.7200000286102295,0,0,0.7200000286102295,121.2815625,-3.6000000000000005)" fill="#fff"><g xmlns="http://www.w3.org/2000/svg"><path d="M78.125,21.692c0.592-5.563,1.707-10.342,1.992-11.517L63.977,5.711c-0.004-0.001-0.008-0.003-0.012-0.004   c-0.005-0.002-0.01-0.003-0.015-0.005l-1.817-0.701c-0.182,2.506-1.463,4.837-3.642,6.602c-2.282,1.85-5.298,2.867-8.491,2.867   c-3.193,0-6.208-1.018-8.491-2.867C39.331,9.838,38.049,7.507,37.868,5L36.05,5.702c-0.005,0.002-0.01,0.003-0.014,0.005   c-0.004,0.001-0.008,0.003-0.013,0.004l-16.141,4.465c0.287,1.175,1.401,5.953,1.993,11.517c0.91,8.556,0.219,14.82-2.052,18.621   V95h60.355V40.313C77.906,36.513,77.215,30.248,78.125,21.692z M63.556,6.931l0.448,0.114c-0.039,0.154-0.082,0.309-0.127,0.459   l-0.443-0.135C63.477,7.226,63.518,7.078,63.556,6.931z M37.716,9.897l-0.394,0.245c-0.083-0.136-0.165-0.272-0.242-0.409   l0.403-0.229C37.557,9.637,37.635,9.769,37.716,9.897z M36.889,8.275l-0.43,0.175c-0.06-0.146-0.117-0.297-0.169-0.444l0.437-0.155   C36.776,7.992,36.831,8.135,36.889,8.275z M20.819,93.236h-0.46v-0.463h0.46V93.236z M21.74,93.236h-0.46v-0.463h0.46V93.236z    M22.662,93.236h-0.461v-0.463h0.461V93.236z M23.583,93.236h-0.46v-0.463h0.46V93.236z M24.504,93.236h-0.46v-0.463h0.46V93.236z    M25.425,93.236h-0.461v-0.463h0.461V93.236z M26.346,93.236h-0.46v-0.463h0.46V93.236z M27.268,93.236h-0.461v-0.463h0.461V93.236   z M28.188,93.236h-0.46v-0.463h0.46V93.236z M29.11,93.236h-0.461v-0.463h0.461V93.236z M30.031,93.236h-0.46v-0.463h0.46V93.236z    M30.952,93.236h-0.461v-0.463h0.461V93.236z M31.873,93.236h-0.46v-0.463h0.46V93.236z M32.794,93.236h-0.461v-0.463h0.461V93.236   z M33.715,93.236h-0.46v-0.463h0.46V93.236z M34.637,93.236h-0.461v-0.463h0.461V93.236z M35.558,93.236h-0.46v-0.463h0.46V93.236z    M35.811,6.167l0.457-0.076c0.025,0.149,0.054,0.3,0.085,0.447L35.9,6.635C35.867,6.48,35.837,6.324,35.811,6.167z M36.458,6.98   c0.038,0.146,0.08,0.293,0.125,0.438L36.14,7.555c-0.047-0.151-0.091-0.306-0.13-0.458L36.458,6.98z M36.479,93.236h-0.461v-0.463   h0.461V93.236z M36.648,8.887l0.421-0.192c0.062,0.137,0.129,0.274,0.198,0.41l-0.412,0.21C36.783,9.174,36.713,9.029,36.648,8.887   z M37.4,93.236h-0.461v-0.463H37.4V93.236z M37.58,10.54l0.384-0.26c0.085,0.125,0.173,0.251,0.264,0.372l-0.373,0.275   C37.761,10.801,37.669,10.671,37.58,10.54z M38.322,93.236h-0.46v-0.463h0.46V93.236z M38.145,11.305l0.361-0.289   c0.095,0.118,0.193,0.235,0.292,0.351l-0.351,0.303C38.344,11.55,38.243,11.428,38.145,11.305z M39.243,93.236h-0.46v-0.463h0.46   V93.236z M39.094,12.362c-0.112-0.111-0.223-0.226-0.33-0.341l0.339-0.315c0.103,0.11,0.209,0.221,0.317,0.328L39.094,12.362z    M39.75,12.352c0.112,0.104,0.226,0.206,0.341,0.305l-0.303,0.351c-0.118-0.103-0.237-0.209-0.353-0.315L39.75,12.352z    M40.164,93.236h-0.46v-0.463h0.46V93.236z M40.15,13.311l0.292-0.36c0.118,0.096,0.24,0.19,0.36,0.281l-0.279,0.37   C40.399,13.508,40.273,13.41,40.15,13.311z M41.085,93.236h-0.46v-0.463h0.46V93.236z M40.906,13.88l0.267-0.379   c0.123,0.087,0.251,0.173,0.379,0.257l-0.254,0.388C41.166,14.06,41.034,13.97,40.906,13.88z M42.006,93.236h-0.46v-0.463h0.46   V93.236z M42.107,14.638c-0.137-0.078-0.275-0.158-0.408-0.239l0.241-0.396c0.13,0.079,0.262,0.156,0.395,0.231L42.107,14.638z    M42.927,93.236h-0.46v-0.463h0.46V93.236z M42.945,15.076c-0.142-0.069-0.283-0.14-0.423-0.213l0.215-0.41   c0.135,0.07,0.271,0.139,0.41,0.205L42.945,15.076z M43.849,93.236h-0.46v-0.463h0.46V93.236z M43.809,15.461   c-0.146-0.061-0.292-0.122-0.435-0.187l0.188-0.423c0.14,0.062,0.28,0.122,0.422,0.18L43.809,15.461z M44.77,93.236h-0.46v-0.463   h0.46V93.236z M44.695,15.791c-0.149-0.051-0.298-0.104-0.446-0.158l0.163-0.435c0.143,0.054,0.287,0.104,0.432,0.154   L44.695,15.791z M45.691,93.236h-0.46v-0.463h0.46V93.236z M45.599,16.067c-0.152-0.041-0.303-0.085-0.454-0.132l0.136-0.442   c0.146,0.045,0.293,0.087,0.441,0.128L45.599,16.067z M46.612,93.236h-0.46v-0.463h0.46V93.236z M46.517,16.291   c-0.154-0.033-0.308-0.067-0.461-0.104l0.11-0.45c0.148,0.035,0.297,0.069,0.448,0.101L46.517,16.291z M47.063,15.926   c0.151,0.027,0.302,0.054,0.454,0.076l-0.07,0.458c-0.156-0.023-0.311-0.05-0.466-0.078L47.063,15.926z M47.533,93.236h-0.46   v-0.463h0.46V93.236z M47.972,16.064c0.151,0.02,0.303,0.036,0.457,0.05l-0.044,0.462c-0.157-0.016-0.314-0.032-0.47-0.052   L47.972,16.064z M48.455,93.236h-0.461v-0.463h0.461V93.236z M48.886,16.152c0.152,0.01,0.306,0.018,0.459,0.024l-0.018,0.463   c-0.158-0.007-0.315-0.015-0.472-0.025L48.886,16.152z M49.375,93.236h-0.46v-0.463h0.46V93.236z M49.805,16.188   c0.153,0.001,0.306,0.001,0.46-0.001l0.007,0.463c-0.09,0.001-0.18,0.002-0.271,0.002c-0.066,0-0.134,0-0.201-0.001L49.805,16.188z    M50.297,93.236h-0.461v-0.463h0.461V93.236z M50.722,16.174c0.153-0.007,0.306-0.016,0.458-0.026l0.032,0.462   c-0.156,0.011-0.312,0.021-0.47,0.026L50.722,16.174z M51.219,93.236h-0.461v-0.463h0.461V93.236z M52.14,93.236h-0.461v-0.463   h0.461V93.236z M51.683,16.569l-0.046-0.461c0.153-0.015,0.305-0.032,0.456-0.052l0.059,0.46   C51.996,16.536,51.84,16.554,51.683,16.569z M53.061,93.236H52.6v-0.463h0.461V93.236z M52.617,16.45l-0.07-0.458   c0.151-0.023,0.302-0.049,0.451-0.077l0.086,0.455C52.929,16.399,52.774,16.426,52.617,16.45z M53.982,93.236h-0.461v-0.463h0.461   V93.236z M53.546,16.277l-0.099-0.453c0.15-0.032,0.299-0.066,0.447-0.104l0.111,0.45C53.854,16.208,53.699,16.244,53.546,16.277z    M54.902,93.236h-0.46v-0.463h0.46V93.236z M54.462,16.052l-0.124-0.446c0.146-0.041,0.293-0.085,0.439-0.13l0.137,0.442   C54.764,15.965,54.613,16.009,54.462,16.052z M55.644,15.178l0.163,0.434c-0.146,0.056-0.295,0.108-0.443,0.16l-0.15-0.438   C55.357,15.284,55.501,15.231,55.644,15.178z M55.824,93.236h-0.461v-0.463h0.461V93.236z M56.07,15.01   c0.141-0.059,0.281-0.119,0.42-0.182l0.189,0.423c-0.143,0.063-0.288,0.126-0.434,0.187L56.07,15.01z M56.745,93.236h-0.46v-0.463   h0.46V93.236z M56.904,14.634c0.139-0.067,0.273-0.136,0.408-0.207l0.217,0.41c-0.139,0.073-0.279,0.145-0.422,0.213L56.904,14.634   z M57.666,93.236h-0.461v-0.463h0.461V93.236z M57.714,14.207c0.133-0.076,0.265-0.154,0.394-0.233l0.243,0.395   c-0.134,0.083-0.271,0.163-0.407,0.241L57.714,14.207z M58.588,93.236h-0.461v-0.463h0.461V93.236z M58.494,13.729   c0.128-0.085,0.254-0.171,0.379-0.259l0.268,0.378c-0.129,0.091-0.259,0.18-0.391,0.267L58.494,13.729z M59.509,93.236h-0.461   v-0.463h0.461V93.236z M59.521,13.568l-0.28-0.369c0.121-0.092,0.241-0.188,0.359-0.283l0.292,0.359   C59.771,13.375,59.646,13.473,59.521,13.568z M60.43,93.236h-0.461v-0.463h0.461V93.236z M60.254,12.971l-0.304-0.35   c0.114-0.099,0.228-0.202,0.339-0.307l0.316,0.339C60.491,12.761,60.373,12.868,60.254,12.971z M60.934,11.666l0.34,0.314   c-0.107,0.116-0.217,0.231-0.328,0.343l-0.327-0.327C60.725,11.89,60.83,11.778,60.934,11.666z M61.352,93.236h-0.461v-0.463h0.461   V93.236z M61.236,11.325c0.1-0.115,0.197-0.234,0.291-0.353l0.363,0.288c-0.097,0.123-0.197,0.246-0.301,0.365L61.236,11.325z    M62.271,93.236h-0.46v-0.463h0.46V93.236z M62.178,10.884l-0.373-0.273c0.089-0.123,0.178-0.248,0.262-0.374l0.384,0.259   C62.363,10.625,62.271,10.756,62.178,10.884z M62.312,9.854c0.079-0.129,0.157-0.261,0.231-0.394l0.404,0.226   c-0.076,0.139-0.158,0.276-0.24,0.41L62.312,9.854z M63.193,93.236h-0.461v-0.463h0.461V93.236z M63.17,9.267l-0.414-0.209   c0.068-0.136,0.135-0.274,0.197-0.411l0.422,0.191C63.311,8.98,63.242,9.125,63.17,9.267z M63.131,8.228   c0.057-0.14,0.111-0.283,0.16-0.426l0.438,0.154C63.677,8.104,63.62,8.254,63.561,8.4L63.131,8.228z M64.114,93.236h-0.46v-0.463   h0.46V93.236z M64.111,6.582l-0.453-0.095c0.03-0.146,0.059-0.297,0.083-0.447l0.458,0.074C64.173,6.271,64.145,6.429,64.111,6.582   z M65.035,93.236h-0.46v-0.463h0.46V93.236z M65.957,93.236h-0.461v-0.463h0.461V93.236z M66.878,93.236h-0.46v-0.463h0.46V93.236z    M67.799,93.236h-0.461v-0.463h0.461V93.236z M68.721,93.236H68.26v-0.463h0.461V93.236z M69.641,93.236h-0.46v-0.463h0.46V93.236z    M70.562,93.236h-0.461v-0.463h0.461V93.236z M71.483,93.236h-0.46v-0.463h0.46V93.236z M72.404,93.236h-0.46v-0.463h0.46V93.236z    M73.326,93.236h-0.461v-0.463h0.461V93.236z M74.247,93.236h-0.46v-0.463h0.46V93.236z M75.17,93.236h-0.463v-0.463h0.463V93.236z    M76.09,93.236h-0.46v-0.463h0.46V93.236z M77.011,93.236H76.55v-0.463h0.461V93.236z M79.314,92.773h0.461v0.463h-0.461V92.773z    M78.393,92.773h0.461v0.463h-0.461V92.773z M77.933,92.773v0.463h-0.462v-0.463H77.933z"/><path d="M21.299,21.754c-0.551-5.184-1.558-9.677-1.916-11.177L2.385,29.707l10.507,12.905l2.28-0.924l4.16-1.684   C21.501,36.36,22.182,30.055,21.299,21.754z M3.893,28.567l0.359-0.292l0.288,0.353L4.18,28.92L3.893,28.567z M4.467,29.273   l0.359-0.292l0.288,0.353l-0.359,0.292L4.467,29.273z M5.042,29.979l0.359-0.293l0.287,0.354L5.33,30.333L5.042,29.979z    M5.617,30.686l0.359-0.292l0.288,0.353l-0.359,0.292L5.617,30.686z M6.192,31.392l0.359-0.293l0.287,0.354l-0.359,0.292   L6.192,31.392z M6.766,32.098l0.36-0.293l0.287,0.354L7.054,32.45L6.766,32.098z M7.341,32.804L7.7,32.511l0.288,0.354l-0.36,0.292   L7.341,32.804z M7.916,33.51l0.359-0.293l0.287,0.354l-0.359,0.292L7.916,33.51z M8.491,34.216l0.359-0.293l0.288,0.353   l-0.36,0.293L8.491,34.216z M9.066,34.922l0.359-0.293l0.288,0.354l-0.359,0.292L9.066,34.922z M9.641,35.627L10,35.335   l0.288,0.353l-0.359,0.292L9.641,35.627z M10.215,36.333l0.359-0.293l0.287,0.354l-0.359,0.293L10.215,36.333z M10.79,37.039   l0.359-0.292l0.288,0.353l-0.36,0.292L10.79,37.039z M11.365,37.745l0.359-0.293l0.287,0.354l-0.359,0.293L11.365,37.745z    M11.939,38.452l0.36-0.293l0.287,0.353l-0.359,0.292L11.939,38.452z M12.802,39.511l-0.287-0.354l0.359-0.293l0.288,0.354   L12.802,39.511z M13.089,39.863l0.359-0.292l0.287,0.353l-0.359,0.292L13.089,39.863z M13.664,40.569l0.359-0.293l0.288,0.354   l-0.359,0.293L13.664,40.569z M14.526,41.628l-0.288-0.353l0.359-0.293l0.288,0.354L14.526,41.628z"/><path d="M39.14,7.686c0.582,1.291,1.506,2.473,2.733,3.467c2.18,1.766,5.066,2.738,8.127,2.738s5.947-0.973,8.127-2.738   c1.227-0.993,2.15-2.175,2.732-3.465C57.795,8.699,53.97,9.253,50,9.253C46.04,9.253,42.214,8.698,39.14,7.686z"/><path d="M78.7,21.761c-0.882,8.297-0.201,14.601,1.968,18.244l6.439,2.607l10.508-12.905l-16.998-19.13   C80.26,12.078,79.251,16.576,78.7,21.761z M95.76,28.261l0.359,0.293l-0.287,0.354l-0.359-0.293L95.76,28.261z M95.186,28.967   l0.359,0.293l-0.289,0.354l-0.359-0.292L95.186,28.967z M94.609,29.675l0.359,0.292L94.68,30.32l-0.359-0.293L94.609,29.675z    M94.033,30.381l0.359,0.293l-0.287,0.354l-0.359-0.293L94.033,30.381z M93.459,31.088l0.359,0.292l-0.289,0.354l-0.359-0.292   L93.459,31.088z M92.883,31.795l0.359,0.292l-0.287,0.354l-0.361-0.293L92.883,31.795z M92.307,32.501l0.359,0.293l-0.287,0.354   l-0.359-0.293L92.307,32.501z M91.732,33.208l0.359,0.293l-0.289,0.353l-0.357-0.292L91.732,33.208z M91.156,33.915l0.359,0.292   l-0.287,0.354l-0.359-0.292L91.156,33.915z M90.58,34.621l0.361,0.293l-0.289,0.354l-0.359-0.293L90.58,34.621z M90.006,35.328   l0.359,0.293l-0.289,0.353l-0.357-0.292L90.006,35.328z M89.43,36.034l0.359,0.293l-0.287,0.354l-0.359-0.293L89.43,36.034z    M88.855,36.741l0.359,0.293l-0.287,0.354l-0.361-0.293L88.855,36.741z M88.279,37.448l0.359,0.293l-0.287,0.354l-0.359-0.293   L88.279,37.448z M87.703,38.155l0.36,0.292l-0.287,0.354l-0.36-0.293L87.703,38.155z M87.129,38.862l0.359,0.292l-0.287,0.354   l-0.359-0.292L87.129,38.862z M86.553,39.569l0.359,0.291l-0.287,0.354l-0.359-0.292L86.553,39.569z M85.979,40.275l0.358,0.292   l-0.287,0.354l-0.36-0.293L85.979,40.275z M85.402,40.981l0.359,0.293l-0.287,0.354l-0.359-0.293L85.402,40.981z"/><path d="M50,8.674c4.113,0,8.062-0.603,11.141-1.696c0.215-0.628,0.354-1.276,0.408-1.938C58.568,6.297,54.396,7.013,50,7.013   c-4.396,0-8.567-0.716-11.548-1.974c0.054,0.662,0.192,1.31,0.408,1.937C41.949,8.07,45.897,8.674,50,8.674z"/></g></g><g id="SvgjsG3526" featureKey="nameRightFeature-0" transform="matrix(2.6384196281433105,0,0,2.6384196281433105,197.51961064987117,-1.768393930718581)" fill="#fff"><path d="M18.965610169491526 19.62712 c0.10169 0.20339 0.034229 0.37271 -0.20305 0.37271 l-1.9831 0 c-0.16949 0 -0.27119 -0.08458 -0.33898 -0.22017 l-0.91525 -1.9322 l-6.5256 0 l-0.91525 1.9322 c-0.067797 0.13559 -0.18644 0.22017 -0.33898 0.22017 l-2 0 c-0.20339 0 -0.32203 -0.16933 -0.22034 -0.37271 l6.3898 -13.102 c0.067797 -0.11881 0.15238 -0.16966 0.23712 -0.16966 l0.20339 0 c0.10169 0 0.16949 0.050847 0.23729 0.16966 z M10.034110169491525 15.6441 l4.4576 0 l-2.2203 -4.7288 z M28.99950847457627 6.441000000000001 c0.16949 0 0.32203 0.13592 0.32203 0.32237 l0 1.6949 c0 0.16933 -0.15254 0.32186 -0.32203 0.32186 l-3.8305 0 l0 10.881 c0 0.20339 -0.13559 0.33881 -0.32203 0.33881 l-1.2542 0 c-0.54237 0 -0.84746 -0.37288 -0.84746 -0.86441 l0 -10.356 l-3.8136 0 c-0.16949 0 -0.33898 -0.13559 -0.33898 -0.32203 l0 -1.678 c0 -0.18644 0.15254 -0.33898 0.33898 -0.33898 l10.068 0 z M41.423237288135596 6.441000000000001 c0.16949 0 0.32203 0.13592 0.32203 0.32237 l0 1.6949 c0 0.16933 -0.15254 0.32186 -0.32203 0.32186 l-3.8305 0 l0 10.881 c0 0.20339 -0.13559 0.33881 -0.32203 0.33881 l-1.2542 0 c-0.54237 0 -0.84746 -0.37288 -0.84746 -0.86441 l0 -10.356 l-3.8136 0 c-0.16949 0 -0.33898 -0.13559 -0.33898 -0.32203 l0 -1.678 c0 -0.18644 0.15254 -0.33898 0.33898 -0.33898 l10.068 0 z M45.864274576271185 6.441000000000001 l-1.6778 0 c-0.18644 0 -0.32203 0.15254 -0.32203 0.32203 l0 12.898 c0 0.18644 0.15254 0.33881 0.33898 0.33881 l1.678 0 c0.16933 0 0.32186 -0.16933 0.32186 -0.33881 l0 -12.898 c0 -0.16949 -0.16949 -0.32203 -0.33898 -0.32203 z M59.0333220338983 19.61017 c0.13559 0.20339 0.034064 0.38983 -0.23712 0.38983 l-1.5763 0 c-0.47458 0 -0.88136 -0.44068 -1.0339 -0.69492 l-2.339 -3.5763 l-2.8475 0 l0 3.9322 c0 0.20339 -0.13559 0.33881 -0.32203 0.33881 l-1.7966 0 c-0.16949 0 -0.30508 -0.13543 -0.30508 -0.33881 l0 -12.898 c0 -0.16949 0.13559 -0.32203 0.32203 -0.32203 l5.4068 0 c2.7797 0 4.4915 2.5763 4.4915 4.6441 c0 1.6442 -0.98305 3.4576 -2.661 4.2373 z M51.00012203389831 8.78 l0.00033103 4.6102 l2.9659 0 c1.6102 0 2.3898 -1.1695 2.3898 -2.3559 c0 -1.1356 -0.79661 -2.2542 -2.3902 -2.2542 l-2.9659 0 z M69.66101016949152 8.78 l-6.1697 -0.00033103 l0 3.4068 l3.322 0 c0.18644 0 0.33898 0.15254 0.33898 0.33915 l0 1.6778 c0 0.20339 -0.13559 0.3222 -0.33898 0.3222 l-3.322 0 l0 3.1356 l6.1695 0 c0.18644 0 0.33881 0.15238 0.33881 0.33881 l0 1.6613 c0 0.18644 -0.15238 0.33881 -0.33881 0.33881 l-8.2542 0 c-0.18644 0 -0.33898 -0.15238 -0.33898 -0.33881 l0 -12.898 c0 -0.16949 0.13559 -0.32203 0.3222 -0.32203 l8.2712 0 c0.18644 0 0.33881 0.15254 0.33881 0.32203 l0 1.6949 c0 0.18644 -0.15238 0.32203 -0.33881 0.32203 z"/></g>
			</g>
		</svg>
	